<svg width="338" height="160" viewBox="0 0 338 160" fill="none" xmlns="http://www.w3.org/2000/svg">
<g clip-path="url(#clip0_601_9493)">
<path d="M79.7044 139.192C73.7681 142.101 66.0213 143.552 56.464 143.552C43.9906 143.552 34.1849 139.849 27.0469 132.426C19.9089 125.011 16.3359 115.134 16.3359 102.784C16.3359 89.6324 20.3495 78.9684 28.3848 70.784C36.412 62.6078 46.8345 58.5156 59.6444 58.5156C67.5835 58.5156 74.2648 59.5285 79.7124 61.5544V79.3898C74.2728 76.1079 68.0722 74.463 61.1185 74.463C53.4838 74.463 47.3232 76.8939 42.6367 81.7478C37.9501 86.6017 35.6109 93.1816 35.6109 101.471C35.6109 109.761 37.8219 115.757 42.2441 120.474C46.6663 125.198 52.6186 127.556 60.101 127.556C67.5835 127.556 73.7761 125.797 79.7124 122.281V139.192H79.7044Z" fill="white"/>
<path d="M113.31 61.3271H94.9961V143.552H113.31V61.3271Z" fill="white"/>
<path d="M177.955 143.543H129.207V61.3271H176.089V76.4074H147.513V94.6966H174.102V109.72H147.513V128.52H177.955V143.543Z" fill="white"/>
<path d="M238.166 143.543H189.754V61.3271H208.067V128.52H238.166V143.543Z" fill="white"/>
<path d="M280.233 74.4542C273.808 74.4542 268.704 76.8933 264.923 81.7634C261.142 86.6335 259.251 93.0837 259.251 101.114C259.251 109.144 261.142 115.7 264.923 120.44C268.704 125.181 273.655 127.547 279.776 127.547C285.896 127.547 291.096 125.246 294.797 120.643C298.498 116.032 300.349 109.639 300.349 101.463C300.349 93.2863 298.554 86.3012 294.965 81.5608C291.376 76.8203 286.465 74.4542 280.225 74.4542M279.439 143.543C267.799 143.543 258.314 139.71 250.984 132.044C243.654 124.379 239.984 114.395 239.984 102.086C239.984 89.0888 243.702 78.5788 251.152 70.5484C258.594 62.518 268.456 58.5068 280.745 58.5068C292.345 58.5068 301.727 62.3478 308.889 70.0298C316.051 77.7117 319.632 87.8408 319.632 100.417C319.632 112.994 315.922 123.755 308.496 131.664C301.07 139.572 291.384 143.535 279.447 143.535" fill="white"/>
<path d="M19.4453 27.7057V17.139H20.6069V21.2231H29.3311V17.139H30.4927V27.7057H19.4533H19.4453ZM20.6069 26.6442H29.3311V22.2846H20.6069V26.6442ZM23.1625 41.141V35.3633H36.7655V31.6601H23.0263V30.5986H37.8951V36.4006H24.2921V40.0795H38.4879V41.141H23.1625ZM36.7415 28.905V16.4502H37.8951V28.905H36.7415Z" fill="white"/>
<path d="M109.916 36.4246V37.4618H87.4531V36.4246H109.916ZM91.0101 31.0035V18.6621H106.768V19.6993H92.1397V24.302H106.576V25.3392H92.1397V29.9743H106.872V31.0116H91.0101V31.0035Z" fill="white"/>
<path d="M164.209 17.6252C165.002 17.6252 165.755 17.7629 166.476 18.0303C167.197 18.3059 167.822 18.6786 168.359 19.1567C168.895 19.6429 169.328 20.1939 169.64 20.8341C169.953 21.4743 170.113 22.1387 170.113 22.8518V24.6508C170.113 25.3557 169.953 26.0283 169.64 26.6685C169.328 27.3086 168.903 27.8597 168.359 28.3459C167.814 28.8321 167.189 29.2048 166.476 29.4803C165.755 29.7558 165.002 29.8855 164.209 29.8855C163.416 29.8855 162.663 29.7477 161.95 29.4803C161.229 29.2048 160.604 28.8321 160.067 28.3459C159.53 27.8678 159.098 27.3086 158.785 26.6685C158.473 26.0364 158.312 25.3638 158.312 24.6508V22.8518C158.312 22.1468 158.473 21.4743 158.785 20.8341C159.098 20.202 159.522 19.6429 160.067 19.1567C160.604 18.6786 161.237 18.2978 161.95 18.0303C162.671 17.7548 163.424 17.6252 164.209 17.6252ZM164.209 28.7753C164.874 28.7753 165.491 28.6619 166.067 28.4512C166.644 28.2324 167.141 27.9326 167.573 27.5355C168.006 27.1466 168.342 26.6847 168.583 26.158C168.823 25.6313 168.943 25.0559 168.943 24.4401V23.0787C168.943 22.4629 168.823 21.8875 168.583 21.3608C168.342 20.8341 168.006 20.3722 167.573 19.9832C167.141 19.5943 166.636 19.2864 166.067 19.0676C165.491 18.8488 164.874 18.7434 164.209 18.7434C163.544 18.7434 162.927 18.8488 162.35 19.0676C161.773 19.2864 161.277 19.5943 160.844 19.9832C160.411 20.3722 160.075 20.8341 159.835 21.3608C159.594 21.8875 159.474 22.4629 159.474 23.0787V24.4401C159.474 25.0559 159.594 25.6313 159.835 26.158C160.075 26.6847 160.411 27.1466 160.844 27.5355C161.277 27.9245 161.781 28.2324 162.35 28.4512C162.927 28.67 163.544 28.7753 164.209 28.7753ZM163.728 39.7472H177.868V40.8331H162.566V32.8513H163.728V39.7472ZM176.089 34.164V16.4502H177.251V34.164H176.089Z" fill="white"/>
<path d="M246.137 29.3422H238.567V36.4245H249.206V37.4617H226.742V36.4245H237.405V29.3422H230.187V18.7188H245.889V19.7803H231.341V28.2807H246.129V29.3422H246.137Z" fill="white"/>
<path d="M303.235 34.8775C302.25 34.8775 301.385 34.7074 300.648 34.3589C299.911 34.0105 299.302 33.5243 298.813 32.9003C298.325 32.2764 297.964 31.5228 297.724 30.6557C297.483 29.7805 297.363 28.8244 297.363 27.7709V25.4048C297.363 24.3513 297.483 23.387 297.724 22.52C297.964 21.6529 298.333 20.8993 298.813 20.2754C299.294 19.6514 299.911 19.1652 300.648 18.8168C301.385 18.4683 302.242 18.2981 303.235 18.2981C304.229 18.2981 305.086 18.4683 305.823 18.8168C306.56 19.1652 307.169 19.6433 307.658 20.2754C308.138 20.8993 308.507 21.6529 308.747 22.52C308.988 23.387 309.108 24.3513 309.108 25.4048V25.5425H315.3V16.4668H316.462V41.1495H315.3V26.6284H309.108V27.7709C309.108 28.8244 308.988 29.7887 308.747 30.6557C308.507 31.5309 308.138 32.2764 307.658 32.9003C307.169 33.5243 306.56 34.0105 305.823 34.3589C305.086 34.7074 304.229 34.8775 303.235 34.8775ZM303.235 19.3759C301.641 19.3759 300.456 19.9512 299.679 21.0938C298.909 22.2364 298.517 23.7841 298.517 25.7289V27.4468C298.517 29.3916 298.901 30.9312 299.679 32.0819C300.448 33.2245 301.633 33.7998 303.235 33.7998C304.838 33.7998 306.015 33.2245 306.792 32.0819C307.562 30.9393 307.954 29.3916 307.954 27.4468V25.7289C307.954 23.7841 307.57 22.2445 306.792 21.0938C306.023 19.9512 304.838 19.3759 303.235 19.3759Z" fill="white"/>
</g>
<defs>
<clipPath id="clip0_601_9493">
<rect width="338" height="160" fill="white"/>
</clipPath>
</defs>
</svg>
