<svg width="40" height="41" viewBox="0 0 40 41" fill="none" xmlns="http://www.w3.org/2000/svg">
<mask id="mask0_486_12292" style="mask-type:alpha" maskUnits="userSpaceOnUse" x="0" y="0" width="40" height="41">
<rect y="0.5" width="40" height="40" fill="#D9D9D9"/>
</mask>
<g mask="url(#mask0_486_12292)">
<path d="M19.9987 37.1673C16.7487 37.1673 13.9918 36.0354 11.7279 33.7715C9.46398 31.5076 8.33203 28.7507 8.33203 25.5007V18.834H31.6654V25.5007C31.6654 28.7507 30.5334 31.5076 28.2695 33.7715C26.0056 36.0354 23.2487 37.1673 19.9987 37.1673ZM8.33203 15.5007C8.33203 12.584 9.27648 10.0354 11.1654 7.85482C13.0543 5.67426 15.4431 4.37565 18.332 3.95898V15.5007H8.33203ZM21.6654 15.5007V3.95898C24.5543 4.37565 26.9431 5.67426 28.832 7.85482C30.7209 10.0354 31.6654 12.584 31.6654 15.5007H21.6654Z" fill="#E55125"/>
</g>
</svg>
