<svg width="200" height="160" viewBox="0 0 200 160" fill="none" xmlns="http://www.w3.org/2000/svg">
<g clip-path="url(#clip0_601_23291)">
<path d="M124.729 29.4276L101.658 14.7021L56.1484 44.13L56.7117 117.493L61.988 123.137" stroke="white" stroke-width="2" stroke-miterlimit="10"/>
<path d="M141.02 122.366L146.296 117.48C146.296 117.159 146.48 93.1451 146.641 72.5801" stroke="white" stroke-width="2" stroke-miterlimit="10"/>
<path d="M140.882 72.7178V122.642L128.961 115.147" stroke="white" stroke-width="2" stroke-miterlimit="10"/>
<path d="M62.1172 123.699V46.7847L101.638 21.5986L120.697 33.5767" stroke="white" stroke-width="2" stroke-miterlimit="10"/>
<path d="M116.039 45.7278C111.464 47.2337 106.579 48.0498 101.509 48.0498C91.2442 48.0498 81.7491 44.7162 74.0703 39.0605" stroke="white" stroke-width="2" stroke-miterlimit="10"/>
<path d="M117.477 40.0031C112.614 42.0722 107.212 43.2332 101.51 43.2332C93.061 43.2332 85.2443 40.6928 78.9219 36.3936" stroke="white" stroke-width="2" stroke-miterlimit="10"/>
<path d="M129.075 114.94C124.293 118.492 118.799 121.136 112.855 122.631" stroke="white" stroke-width="2" stroke-miterlimit="10"/>
<path d="M68.8649 118.562L62.1172 123.171" stroke="white" stroke-width="2" stroke-miterlimit="10"/>
<path d="M73.9219 39.0947V94.2144" stroke="white" stroke-width="2" stroke-miterlimit="10"/>
<path d="M129.352 70.2812V115.745" stroke="white" stroke-width="2" stroke-miterlimit="10"/>
<path d="M91.4965 98.6291L99.4512 77.9952C100.336 75.6961 99.4512 72.9948 97.2441 71.8912C94.7151 70.6267 91.7149 71.8337 90.7263 74.4087L81.6451 97.9624L81.0013 99.6177C81.9899 97.0428 80.576 94.1345 77.8631 93.3758C75.4951 92.7091 73.0236 94.1115 72.1385 96.4106L69.1267 104.216C67.2185 109.17 67.2645 114.665 69.2417 119.585L74.9088 133.621L73.4604 137.38" stroke="white" stroke-width="2" stroke-miterlimit="10"/>
<path d="M96.4297 146.266L98.6713 140.461L105.626 134.276C108.074 132.092 109.971 129.368 111.155 126.298L117.822 108.998" stroke="white" stroke-width="2" stroke-miterlimit="10"/>
<path d="M100.29 102.02L111.912 71.9027C112.854 69.4772 111.636 66.7414 109.21 65.8103C106.785 64.8676 104.049 66.0861 103.118 68.5116L91.4961 98.6292" stroke="white" stroke-width="2" stroke-miterlimit="10"/>
<path d="M109.095 105.412L119.13 79.3979C120.073 76.9724 118.854 74.2365 116.429 73.3054C114.003 72.3628 111.267 73.5813 110.336 76.0068L100.301 102.02" stroke="white" stroke-width="2" stroke-miterlimit="10"/>
<path d="M117.888 108.802L124.359 92.0307C125.302 89.6052 124.084 86.8693 121.658 85.9382C119.233 84.9956 116.497 86.2141 115.566 88.6396L109.094 105.411" stroke="white" stroke-width="2" stroke-miterlimit="10"/>
<path d="M81.001 99.6289L77.0352 109.894" stroke="white" stroke-width="2" stroke-miterlimit="10"/>
<path d="M157.736 65.6595C167.276 56.12 167.276 40.6534 157.736 31.1139C148.197 21.5745 132.73 21.5745 123.191 31.1139C113.651 40.6534 113.651 56.12 123.191 65.6595C132.73 75.199 148.197 75.199 157.736 65.6595Z" fill="white" stroke="white" stroke-width="2" stroke-miterlimit="10"/>
<path d="M140.01 66.2695C129.549 63.3727 125.882 54.1765 124.48 43.417C124.457 43.1756 124.56 42.9342 124.756 42.7847C128.641 40.0489 130.883 36.7842 132.365 33.2322C132.492 32.9448 132.791 32.7724 133.101 32.8413C135.757 33.3471 137.389 33.6115 139.998 33.5885C142.608 33.6115 144.068 33.3586 146.723 32.8413C147.033 32.7839 147.344 32.9448 147.459 33.2322C148.93 36.7727 151.183 40.0489 155.069 42.7847C155.264 42.9227 155.379 43.1756 155.344 43.417C153.942 54.142 150.838 63.3727 140.355 66.2695H139.998H140.01ZM140.182 64.9246L141.734 64.4188C148.896 61.6829 151.907 55.303 153.425 47.1299L153.977 43.6124L152.838 42.7502C150.068 40.4627 148.194 37.8763 146.861 35.1289L146.459 34.2323L146.022 34.3127C143.895 34.7036 142.389 34.922 139.998 34.899C137.952 34.922 136.458 34.761 134.71 34.4737L133.366 34.2208L132.963 35.1174C131.63 37.8648 129.756 40.4627 126.986 42.7387L125.848 43.6009L126.422 47.1069C128.032 55.2571 131.4 61.6599 138.63 64.3958L140.182 64.9016V64.9246ZM139.941 62.2922C131.963 60.0851 129.193 53.0615 128.147 44.9573C128.112 44.7159 128.216 44.4745 128.423 44.3251C131.319 42.2904 132.986 39.8534 134.09 37.2095C134.205 36.9222 134.515 36.7612 134.825 36.8187C136.814 37.198 138.033 37.3935 139.987 37.382C141.93 37.405 143.022 37.2095 145.022 36.8187C145.332 36.7612 145.642 36.9222 145.757 37.2095C146.861 39.8534 148.528 42.2904 151.425 44.3251C151.631 44.463 151.735 44.7159 151.7 44.9573C150.643 53.027 148.298 60.0736 140.297 62.2922H139.941ZM140.113 60.9472L141.217 60.5794C146.528 58.5562 148.769 53.8202 149.907 47.7047L150.31 45.1527L149.528 44.555C147.424 42.8192 146.01 40.8535 144.987 38.7614L144.734 38.2096L144.527 38.2441C142.918 38.543 141.78 38.7039 139.964 38.6924C138.412 38.7039 137.274 38.589 135.963 38.3706L135.067 38.2096L134.814 38.7729C133.802 40.865 132.377 42.8307 130.273 44.5665L129.503 45.1642L129.917 47.6932C131.135 53.7972 133.641 58.5447 138.998 60.5794L140.113 60.9472ZM132.067 47.8311C131.894 47.8426 131.722 47.7967 131.584 47.6702C131.308 47.4288 131.273 47.0035 131.515 46.7276L136.768 40.6811C137.01 40.4052 137.435 40.3707 137.699 40.6121C137.987 40.8535 138.01 41.2674 137.768 41.5432L132.515 47.5897C132.388 47.7277 132.228 47.8081 132.055 47.8196L132.067 47.8311Z" fill="white" stroke="#E55125"/>
</g>
<defs>
<clipPath id="clip0_601_23291">
<rect width="111.033" height="133.333" fill="white" transform="translate(55 13.334)"/>
</clipPath>
</defs>
</svg>
