<svg width="200" height="160" viewBox="0 0 200 160" fill="none" xmlns="http://www.w3.org/2000/svg">
<g clip-path="url(#clip0_601_23177)">
<path d="M77.4063 24.54H63.2773V127.832H77.4063V24.54Z" fill="#E55125" stroke="white" stroke-width="2" stroke-miterlimit="10"/>
<path d="M48 127.832H77.4901" stroke="white" stroke-width="2" stroke-miterlimit="10"/>
<path d="M106.216 131.622L77.2891 137.607V14.7764L124.487 24.5399V91.7816" stroke="white" stroke-width="2" stroke-miterlimit="10"/>
<path d="M84.8594 76.1855H93.0387" stroke="white" stroke-width="2" stroke-miterlimit="10"/>
<path d="M151.902 122.68V115.275L142.795 113.667C142.455 112.541 141.997 111.461 141.457 110.44L146.762 102.859L141.528 97.6253L133.947 102.93C132.926 102.378 131.846 101.932 130.72 101.592L129.112 92.4854H121.707L120.1 101.592C118.973 101.932 117.894 102.39 116.873 102.93L109.292 97.6253L104.058 102.859L109.362 110.44C108.811 111.461 108.365 112.541 108.024 113.667L98.918 115.275V122.68L108.024 124.287C108.365 125.414 108.822 126.493 109.362 127.514L104.058 135.095L109.292 140.329L116.873 135.025C117.894 135.576 118.973 136.022 120.1 136.363L121.707 145.469H129.112L130.72 136.363C131.846 136.022 132.926 135.565 133.947 135.025L141.528 140.329L146.762 135.095L141.457 127.514C142.009 126.493 142.455 125.414 142.795 124.287L151.902 122.68Z" stroke="white" stroke-width="2" stroke-miterlimit="10"/>
<path d="M131.446 118.983C131.446 122.327 128.736 125.038 125.391 125.038C122.047 125.038 119.336 122.327 119.336 118.983C119.336 115.639 122.047 112.928 125.391 112.928C128.736 112.928 131.446 115.639 131.446 118.983Z" fill="white"/>
</g>
<defs>
<clipPath id="clip0_601_23177">
<rect width="105.075" height="133.333" fill="white" transform="translate(48 13.333)"/>
</clipPath>
</defs>
</svg>
