<svg width="28" height="28" viewBox="0 0 28 28" fill="none" xmlns="http://www.w3.org/2000/svg">
<mask id="mask0_642_46883" style="mask-type:alpha" maskUnits="userSpaceOnUse" x="0" y="0" width="28" height="28">
<rect width="28" height="28" fill="#D9D9D9"/>
</mask>
<g mask="url(#mask0_642_46883)">
<path d="M12.2211 25.6665C11.6767 25.6665 11.1662 25.5498 10.6898 25.3165C10.2135 25.0832 9.80998 24.7526 9.47943 24.3248L3.12109 16.2457L3.67526 15.6623C4.06415 15.254 4.53082 15.0109 5.07526 14.9332C5.61971 14.8554 6.12526 14.9623 6.59193 15.254L8.75026 16.5665V6.99984C8.75026 6.66928 8.86207 6.3922 9.08568 6.16859C9.30929 5.94498 9.58637 5.83317 9.91693 5.83317C10.2475 5.83317 10.5294 5.94498 10.7628 6.16859C10.9961 6.3922 11.1128 6.66928 11.1128 6.99984V12.8332H19.8336C20.8058 12.8332 21.6322 13.1734 22.3128 13.854C22.9933 14.5346 23.3336 15.3609 23.3336 16.3332V20.9998C23.3336 22.2832 22.8766 23.3818 21.9628 24.2957C21.0489 25.2096 19.9503 25.6665 18.6669 25.6665H12.2211ZM4.87109 9.9165C4.61832 9.48873 4.42387 9.02692 4.28776 8.53109C4.15165 8.03525 4.08359 7.52484 4.08359 6.99984C4.08359 5.38595 4.65234 4.01025 5.78984 2.87275C6.92734 1.73525 8.30304 1.1665 9.91693 1.1665C11.5308 1.1665 12.9065 1.73525 14.044 2.87275C15.1815 4.01025 15.7503 5.38595 15.7503 6.99984C15.7503 7.52484 15.6822 8.03525 15.5461 8.53109C15.41 9.02692 15.2155 9.48873 14.9628 9.9165L12.9503 8.74984C13.1058 8.47761 13.2225 8.20053 13.3003 7.91859C13.378 7.63664 13.4169 7.33039 13.4169 6.99984C13.4169 6.02762 13.0767 5.20123 12.3961 4.52067C11.7155 3.84011 10.8892 3.49984 9.91693 3.49984C8.94471 3.49984 8.11832 3.84011 7.43776 4.52067C6.75721 5.20123 6.41693 6.02762 6.41693 6.99984C6.41693 7.33039 6.45582 7.63664 6.53359 7.91859C6.61137 8.20053 6.72804 8.47761 6.88359 8.74984L4.87109 9.9165Z" fill="#E55125"/>
</g>
</svg>
