<svg width="84" height="40" viewBox="0 0 84 40" fill="none" xmlns="http://www.w3.org/2000/svg">
<g clip-path="url(#clip0_1022_16999)">
<path d="M19.8031 35.9524C18.3278 36.6796 16.4025 37.0423 14.0273 37.0423C10.9274 37.0423 8.49051 36.1165 6.71658 34.2608C4.94265 32.4072 4.05469 29.9377 4.05469 26.8503C4.05469 23.5624 5.05215 20.8964 7.04907 18.8503C9.044 16.8062 11.6342 15.7832 14.8177 15.7832C16.7908 15.7832 18.4512 16.0364 19.8051 16.5429V21.0017C18.4532 20.1813 16.9122 19.77 15.1841 19.77C13.2867 19.77 11.7557 20.3778 10.591 21.5913C9.42626 22.8047 8.8449 24.4497 8.8449 26.5221C8.8449 28.5945 9.3944 30.0937 10.4934 31.2727C11.5924 32.4538 13.0717 33.0433 14.9312 33.0433C16.7908 33.0433 18.3298 32.6037 19.8051 31.7245V35.9524H19.8031Z" fill="white"/>
<path d="M28.1529 16.4863H23.6016V37.0424H28.1529V16.4863Z" fill="white"/>
<path d="M44.2165 37.0404H32.1016V16.4863H43.7526V20.2564H36.6509V24.8287H43.2588V28.5846H36.6509V33.2845H44.2165V37.0404Z" fill="white"/>
<path d="M59.1875 37.0404H47.1562V16.4863H51.7076V33.2845H59.1875V37.0404Z" fill="white"/>
<path d="M69.6353 19.7681C68.0386 19.7681 66.7704 20.3779 65.8306 21.5954C64.8909 22.8129 64.421 24.4255 64.421 26.4331C64.421 28.4407 64.8909 30.0796 65.8306 31.2647C66.7704 32.4498 68.0008 33.0413 69.5218 33.0413C71.0429 33.0413 72.3351 32.466 73.2549 31.3153C74.1747 30.1626 74.6346 28.5642 74.6346 26.5202C74.6346 24.4761 74.1886 22.7298 73.2967 21.5447C72.4047 20.3596 71.1843 19.7681 69.6333 19.7681M69.4382 37.0403C66.5454 37.0403 64.1881 36.0821 62.3664 34.1657C60.5447 32.2492 59.6328 29.7534 59.6328 26.6762C59.6328 23.4267 60.5566 20.7992 62.4082 18.7916C64.2578 16.784 66.7086 15.7812 69.7627 15.7812C72.6456 15.7812 74.977 16.7415 76.7569 18.662C78.5368 20.5825 79.4268 23.1148 79.4268 26.2588C79.4268 29.4029 78.505 32.0932 76.6594 34.0704C74.8138 36.0476 72.4067 37.0383 69.4402 37.0383" fill="white"/>
<path d="M3.57031 5.74698V5.99698H3.82031H3.82321H7.81159H8.06159V5.74698V1.79657V1.54657H7.81159H7.39191H7.14191V1.79657V3.07342H4.48999V1.79657V1.54657H4.23999H3.82031H3.57031V1.79657V5.74698ZM4.91328 10.7698V11.0198H5.16328H10.7001H10.9501V10.7698V10.373V10.123H10.7001H5.82138V9.2476H10.4859H10.7359V8.9976V6.8285V6.5785H10.4859H5.11408H4.86408V6.8285V7.22536V7.47536H5.11408H9.82784V8.35983H5.16328H4.91328V8.60983V10.7698ZM9.81916 6.19534V6.44534H10.0692H10.4859H10.7359V6.19534V1.53906V1.28906H10.4859H10.0692H9.81916V1.53906V6.19534ZM7.14191 3.97027V5.10013H4.48999V3.97027H7.14191Z" fill="white" stroke="white" stroke-width="0.5"/>
<path d="M28.9171 8.84971V8.59971H28.6671H20.6406H20.3906V8.84971V9.23167V9.48167H20.6406H28.6671H28.9171V9.23167V8.84971ZM21.9116 2.05859H21.6616V2.30859V6.85335V6.85634V7.10634H21.9116H27.5793H27.8293V6.85634V6.47438V6.22438H27.5793H22.5652V5.01748H27.4734H27.7234V4.76748V4.38552V4.13552H27.4734H22.5652V2.94056H27.5421H27.7921V2.69056V2.30859V2.05859H27.5421H21.9116Z" fill="white" stroke="white" stroke-width="0.5"/>
<path d="M41.403 2.21364L41.403 2.21363L41.4007 2.21277C41.1335 2.11396 40.8539 2.06305 40.5607 2.06305C40.272 2.06305 39.9916 2.11065 39.7218 2.21336C39.4574 2.31229 39.2206 2.454 39.0185 2.63344L39.0183 2.6336C38.8137 2.81567 38.6529 3.0265 38.5346 3.26495L38.5346 3.26495L38.5341 3.26609C38.4141 3.51109 38.3516 3.77137 38.3516 4.04439V4.64029C38.3516 4.91536 38.4138 5.17591 38.5343 5.41915C38.6531 5.66156 38.817 5.87211 39.0177 6.05054C39.2212 6.23409 39.4559 6.37273 39.721 6.47374L39.7225 6.47428C39.9877 6.57346 40.2676 6.62432 40.5607 6.62432C40.8521 6.62432 41.1328 6.57668 41.403 6.47373L41.4039 6.4734C41.6664 6.37228 41.9004 6.23377 42.1057 6.05108C42.3096 5.86971 42.4711 5.66148 42.59 5.4186C42.7099 5.17359 42.7725 4.91332 42.7725 4.64029V4.04439C42.7725 3.76846 42.7098 3.51088 42.59 3.26609C42.4705 3.02203 42.3061 2.81454 42.1071 2.63483L42.1071 2.63482L42.1055 2.63344C41.9027 2.4533 41.6684 2.31474 41.403 2.21364ZM38.7586 3.37601C38.8624 3.16664 39.0035 2.98142 39.1845 2.82037C39.3629 2.662 39.5731 2.53584 39.81 2.44726L38.7586 3.37601ZM41.5118 5.40973L41.5118 5.40972L41.5099 5.41145C41.3917 5.51963 41.2549 5.60275 41.0913 5.66482C40.9275 5.72428 40.752 5.75658 40.5607 5.75658C40.3669 5.75658 40.1924 5.72612 40.0321 5.66559C39.8708 5.60365 39.7297 5.51741 39.6096 5.40973C39.4918 5.30415 39.4004 5.17922 39.3346 5.03552C39.2708 4.89595 39.2375 4.74116 39.2375 4.5705V4.11955C39.2375 3.94889 39.2708 3.7941 39.3346 3.65453C39.4004 3.51083 39.4918 3.3859 39.6096 3.28032C39.7306 3.17187 39.8691 3.08613 40.0316 3.02468C40.192 2.964 40.3667 2.93347 40.5607 2.93347C40.7545 2.93347 40.929 2.96393 41.0893 3.02448C41.2506 3.08642 41.3917 3.17266 41.5118 3.28032C41.6296 3.3859 41.721 3.51083 41.7867 3.65453C41.8506 3.79411 41.8838 3.94889 41.8838 4.11955V4.5705C41.8838 4.74116 41.8506 4.89595 41.7867 5.03552C41.721 5.17923 41.6296 5.30415 41.5118 5.40973ZM45.3492 9.64106V9.39106H45.0992H40.651V7.35676V7.10676H40.401H40.015H39.765V7.35676V10.0008V10.2508H40.015H45.0992H45.3492V10.0008V9.64106ZM44.2582 7.79161V8.04161H44.5082H44.8942H45.1442V7.79161V1.92383V1.67383H44.8942H44.5082H44.2582V1.92383V7.79161Z" fill="white" stroke="white" stroke-width="0.5"/>
<path d="M63.3155 8.86999V8.61999H63.0655H59.5141V6.64934H61.7163H61.9663H61.9692V6.39934H62.2163V6.02902V5.77902H61.9663H56.9321V3.31367H61.8804H62.1304V3.06367V2.69336V2.44336H61.8804H56.2699H56.0199V2.69336V6.39934V6.64934H56.2699H58.599V8.61999H55.0391H54.7891V8.86999V9.23182V9.48182H55.0391H63.0655H63.3155V9.23182V8.86999Z" fill="white" stroke="white" stroke-width="0.5"/>
<path d="M73.7877 3.51002C74.052 3.11833 74.4554 2.9211 74.9978 2.9211C75.5429 2.9211 75.9463 3.11833 76.2079 3.51002C76.4723 3.90448 76.6031 4.43229 76.6031 5.09899V5.68791C76.6031 6.35461 76.4696 6.88519 76.2079 7.27688M73.7877 3.51002C73.526 3.90171 73.3925 4.43229 73.3925 5.09899V5.68791C73.3925 6.35461 73.5233 6.88241 73.7877 7.27688C74.0493 7.66856 74.4527 7.86579 74.9978 7.86579C75.5429 7.86579 75.9435 7.66856 76.2079 7.27688M73.7877 3.51002L73.9949 3.64988C73.995 3.64972 73.9951 3.64956 73.9952 3.64939M73.7877 3.51002L73.9956 3.64889C73.9954 3.64906 73.9953 3.64923 73.9952 3.64939M76.2079 7.27688L76.0007 7.13701C76.0006 7.13718 76.0005 7.13735 76.0004 7.13751M76.2079 7.27688L76 7.13801C76.0001 7.13784 76.0003 7.13768 76.0004 7.13751M76.0004 7.13751C75.7895 7.44957 75.473 7.61579 74.9978 7.61579C74.5215 7.61579 74.2032 7.44887 73.9956 7.13801L73.9953 7.13769C73.7677 6.79807 73.6425 6.32456 73.6425 5.68791V5.09899C73.6425 4.4632 73.7701 3.98667 73.9952 3.64939M76.0004 7.13751C76.2255 6.80024 76.3531 6.32371 76.3531 5.68791V5.09899C76.3531 4.46233 76.2279 3.98882 76.0002 3.6492L76 3.64889C75.7924 3.33802 75.4741 3.1711 74.9978 3.1711C74.525 3.1711 74.2059 3.33752 73.9952 3.64939M76.5023 3.22945C76.6658 3.44335 76.7912 3.7017 76.8729 3.99893C76.9547 4.29617 76.9956 4.62674 76.9956 4.98787L76.5023 3.22945ZM76.5023 3.22945C76.336 3.01277 76.1289 2.84887 75.8781 2.72942C75.6274 2.60997 75.3358 2.55164 74.9978 2.55164C74.6598 2.55164 74.3682 2.60997 74.1175 2.72942C73.8667 2.84887 73.6568 3.01555 73.4933 3.22945C73.3298 3.44335 73.2044 3.7017 73.1227 3.99893C73.0409 4.29617 73 4.62674 73 4.98787V5.79902C73 6.16015 73.0409 6.48795 73.1227 6.78796L76.5023 3.22945ZM72.8814 6.8537L72.8816 6.85427C72.9705 7.17728 73.1061 7.46668 73.2959 7.71087C73.4864 7.9559 73.7244 8.14716 74.0099 8.28317C74.3013 8.42195 74.634 8.48526 74.9978 8.48526C75.3645 8.48526 75.6945 8.42189 75.9856 8.28317C76.2712 8.14716 76.5092 7.9559 76.6997 7.71087L76.6997 7.71087L76.7009 7.70928C76.8857 7.46748 77.0246 7.18215 77.1141 6.85399C77.2027 6.53182 77.2456 6.17862 77.2456 5.79902V5.65734H78.8524V10.3854V10.6354H79.1024H79.4976H79.7476V10.3854V1.92383V1.67383H79.4976H79.1024H78.8524V1.92383V4.7851H77.2414C77.2286 4.48178 77.1867 4.19677 77.114 3.93263C77.0247 3.6081 76.8861 3.3199 76.7009 3.07761L76.7006 3.07726C76.509 2.8275 76.27 2.63919 75.9856 2.50373C75.6945 2.36501 75.3645 2.30164 74.9978 2.30164C74.6311 2.30164 74.3011 2.36501 74.0099 2.50373C73.7256 2.63919 73.4837 2.83035 73.2947 3.07761C73.1095 3.3199 72.9709 3.6081 72.8816 3.93263C72.793 4.25486 72.75 4.60816 72.75 4.98787V5.79902C72.75 6.17906 72.793 6.5293 72.8814 6.8537Z" fill="white" stroke="white" stroke-width="0.5"/>
</g>
<defs>
<clipPath id="clip0_1022_16999">
<rect width="84" height="40" fill="white"/>
</clipPath>
</defs>
</svg>
