<svg width="220" height="104" viewBox="0 0 220 104" fill="none" xmlns="http://www.w3.org/2000/svg">
<g clip-path="url(#clip0_1022_16791)">
<path d="M51.8205 93.473C47.9606 95.3639 42.9235 96.3067 36.7091 96.3067C28.5987 96.3067 22.2229 93.8997 17.5816 89.0749C12.9404 84.2555 10.6172 77.8348 10.6172 69.8077C10.6172 61.2591 13.2269 54.3275 18.4515 49.0077C23.671 43.6931 30.4479 41.0332 38.7771 41.0332C43.9393 41.0332 48.2836 41.6916 51.8257 43.0084V54.6014C48.2888 52.4682 44.257 51.399 39.7356 51.399C34.7714 51.399 30.7657 52.9791 27.7184 56.1341C24.6711 59.2892 23.1501 63.5661 23.1501 68.9544C23.1501 74.3427 24.5878 78.2404 27.4631 81.3059C30.3385 84.3766 34.2088 85.9094 39.074 85.9094C43.9393 85.9094 47.9658 84.7664 51.8257 82.4805V93.473H51.8205Z" fill="white"/>
<path d="M73.6734 42.8594H61.7656V96.3052H73.6734V42.8594Z" fill="white"/>
<path d="M115.705 96.2999H84.0078V42.8594H114.491V52.6616H95.9104V64.5495H113.199V74.3148H95.9104V86.5346H115.705V96.2999Z" fill="white"/>
<path d="M154.853 96.2999H123.375V42.8594H135.283V86.5346H154.853V96.2999Z" fill="white"/>
<path d="M182.209 51.3931C178.032 51.3931 174.713 52.9785 172.255 56.1441C169.796 59.3096 168.567 63.5023 168.567 68.7221C168.567 73.9418 169.796 78.2029 172.255 81.2842C174.713 84.3655 177.933 85.9035 181.912 85.9035C185.892 85.9035 189.273 84.4076 191.679 81.4159C194.086 78.4189 195.289 74.2631 195.289 68.9485C195.289 63.634 194.122 59.0937 191.789 56.0124C189.455 52.9311 186.262 51.3931 182.204 51.3931M181.693 96.3009C174.125 96.3009 167.957 93.8095 163.191 88.8268C158.425 83.8441 156.039 77.3549 156.039 69.3541C156.039 60.9056 158.456 54.0741 163.3 48.8543C168.14 43.6346 174.552 41.0273 182.543 41.0273C190.085 41.0273 196.185 43.524 200.842 48.5172C205.499 53.5105 207.827 60.0945 207.827 68.2691C207.827 76.4437 205.415 83.4385 200.587 88.5792C195.758 93.72 189.46 96.2956 181.699 96.2956" fill="white"/>
<path d="M9.5 14.9406V15.4406H10H10.0076H20.4426H20.9426V14.9406V4.66951V4.16951H20.4426H19.3446H18.8446V4.66951V8.13932H11.598V4.66951V4.16951H11.098H10H9.5V4.66951V14.9406ZM13.0137 28V28.5H13.5137H28H28.5V28V26.9682V26.4682H28H15.0814V23.8922H27.4396H27.9396V23.3922V17.7525V17.2525H27.4396H13.3849H12.8849V17.7525V18.7844V19.2844H13.3849H25.8719V21.884H13.5137H13.0137V22.384V28ZM25.8492 16.1063V16.6063H26.3492H27.4396H27.9396V16.1063V4V3.5H27.4396H26.3492H25.8492V4V16.1063ZM18.8446 10.1712V13.4088H11.598V10.1712H18.8446Z" fill="white" stroke="white"/>
<path d="M75.5 23.0069V22.5069H75H54H53.5V23.0069V24V24.5H54H75H75.5V24V23.0069ZM57.3252 5.5H56.8252V6V17.8164V17.8241V18.3241H57.3252H72.1541H72.6541V17.8241V16.831V16.331H72.1541H58.8812V12.8931H71.877H72.377V12.3931V11.4V10.9H71.877H58.8812V7.4931H72.0567H72.5567V6.9931V6V5.5H72.0567H57.3252Z" fill="white" stroke="white"/>
<path d="M108.274 5.89331L108.274 5.89328L108.269 5.8916C107.587 5.64104 106.874 5.51196 106.126 5.51196C105.388 5.51196 104.673 5.63283 103.986 5.89276C103.312 6.14355 102.708 6.50241 102.194 6.95611L102.194 6.95643C101.673 7.41704 101.264 7.94975 100.963 8.55244L100.963 8.55244L100.962 8.55471C100.658 9.17215 100.5 9.82677 100.5 10.5135V12.0628C100.5 12.7552 100.658 13.4104 100.963 14.0227C101.265 14.6349 101.681 15.1671 102.193 15.6188C102.71 16.0823 103.307 16.4334 103.985 16.69L103.988 16.691C104.664 16.9423 105.378 17.0713 106.126 17.0713C106.871 17.0713 107.586 16.9504 108.274 16.6899L108.275 16.6893C108.946 16.4325 109.542 16.0816 110.065 15.6198C110.584 15.1606 110.994 14.6347 111.296 14.0216C111.6 13.4041 111.758 12.7495 111.758 12.0628V10.5135C111.758 9.81933 111.6 9.17173 111.296 8.55471C110.993 7.93922 110.575 7.41477 110.067 6.95888L110.067 6.95887L110.064 6.95611C109.548 6.50102 108.952 6.15007 108.274 5.89331ZM108.718 14.174L108.718 14.174L108.714 14.1774C108.389 14.4729 108.014 14.699 107.568 14.8669C107.123 15.0279 106.645 15.1152 106.126 15.1152C105.602 15.1152 105.126 15.0332 104.687 14.8684C104.248 14.7008 103.862 14.4668 103.533 14.174C103.209 13.8853 102.958 13.5436 102.777 13.1518C102.601 12.7682 102.51 12.3446 102.51 11.8814V10.7089C102.51 10.2456 102.601 9.82207 102.777 9.43848C102.958 9.04659 103.209 8.70489 103.533 8.41623C103.864 8.12185 104.243 7.8889 104.686 7.72228C105.125 7.55719 105.601 7.47507 106.126 7.47507C106.65 7.47507 107.126 7.55705 107.565 7.72188C108.004 7.88946 108.389 8.1234 108.718 8.41623C109.042 8.70488 109.294 9.04658 109.474 9.43848C109.651 9.82207 109.742 10.2456 109.742 10.7089V11.8814C109.742 12.3446 109.651 12.7682 109.474 13.1518C109.294 13.5436 109.042 13.8853 108.718 14.174ZM118.5 25.0648V24.5648H118H106.208V19.1256V18.6256H105.708H104.698H104.198V19.1256V26V26.5H104.698H118H118.5V26V25.0648ZM115.954 20.2562V20.7562H116.454H117.464H117.964V20.2562V5V4.5H117.464H116.454H115.954V5V20.2562Z" fill="white" stroke="white"/>
<path d="M165.5 23.0592V22.5592H165H155.554V17.1355H161.624H162.124H162.132V16.6355H162.624V15.6727V15.1727H162.124H148.799V8.46282H161.899H162.399V7.96282V7V6.5H161.899H147.22H146.72V7V16.6355V17.1355H147.22H153.468V22.5592H144H143.5V23.0592V24V24.5H144H165H165.5V24V23.0592Z" fill="white" stroke="white"/>
<path d="M201.615 17.7796C201.843 16.9566 201.954 16.0516 201.954 15.0755V14.5571H206.466V27V27.5H206.966H208H208.5V27V5V4.5H208H206.966H206.466V5V12.5893H201.948C201.923 11.7562 201.813 10.9779 201.615 10.2619C201.386 9.43418 201.031 8.70264 200.559 8.08974L200.559 8.08904C200.073 7.45958 199.467 6.98492 198.744 6.64263C198.007 6.2939 197.168 6.1323 196.227 6.1323C195.286 6.1323 194.446 6.2939 193.71 6.64263C192.987 6.98492 192.374 7.46694 191.894 8.08974C191.423 8.70265 191.068 9.43419 190.839 10.2619C190.611 11.085 190.5 11.9902 190.5 12.9665V15.0755C190.5 16.0525 190.611 16.9499 190.839 17.779L190.839 17.7801C191.067 18.6048 191.414 19.3388 191.897 19.9554C192.38 20.5738 192.984 21.056 193.71 21.3994C194.447 21.7482 195.293 21.9097 196.227 21.9097C197.168 21.9097 198.007 21.7481 198.744 21.3994C199.469 21.056 200.073 20.5738 200.557 19.9554L200.559 19.9523C201.03 19.3404 201.386 18.6162 201.615 17.7796ZM201.615 17.7796C201.615 17.7798 201.615 17.78 201.615 17.7801L201.133 17.6468L201.615 17.779C201.615 17.7792 201.615 17.7794 201.615 17.7796ZM193.476 18.639L193.475 18.6384C192.858 17.7227 192.527 16.4594 192.527 14.7866V13.2554C192.527 11.5843 192.864 10.3133 193.475 9.404C194.059 8.5451 194.946 8.09291 196.227 8.09291C197.517 8.09291 198.402 8.54613 198.978 9.40304L198.979 9.40367C199.596 10.3194 199.927 11.5826 199.927 13.2554V14.7866C199.927 16.4577 199.59 17.7286 198.979 18.6379C198.395 19.4973 197.515 19.9491 196.227 19.9491C194.937 19.9491 194.052 19.4959 193.476 18.639Z" fill="white" stroke="white"/>
</g>
<defs>
<clipPath id="clip0_1022_16791">
<rect width="219.774" height="104" fill="white"/>
</clipPath>
</defs>
</svg>
